{
  "accessors": [
    {
      "name": "backbox_1_positions",
      "componentType": 5126,
      "count": 18,
      "min": [
        43.624393463134766,
        -28.37548828125,
        11.837848663330078
      ],
      "max": [
        73.92111206054688,
        -15.637031555175781,
        35.66106414794922
      ],
      "type": "VEC3",
      "bufferView": 0,
      "byteOffset": 0
    },
    {
      "name": "backbox_1_normals",
      "componentType": 5126,
      "count": 18,
      "min": [
        -0.8588759899139404,
        0,
        -0.525065004825592
      ],
      "max": [
        1.4804420471191406,
        0,
        1.315194010734558
      ],
      "type": "VEC3",
      "bufferView": 0,
      "byteOffset": 17568
    },
    {
      "name": "backbox_1_texcoords",
      "componentType": 5126,
      "count": 18,
      "min": [
        0.019999999552965164,
        0.019999999552965164
      ],
      "max": [
        0.8674349784851074,
        0.9800000190734863
      ],
      "type": "VEC2",
      "bufferView": 1,
      "byteOffset": 0
    },
    {
      "name": "backbox_1_0_indices",
      "componentType": 5123,
      "count": 30,
      "min": [
        0
      ],
      "max": [
        17
      ],
      "type": "SCALAR",
      "bufferView": 2,
      "byteOffset": 0
    },
    {
      "name": "ChamferCyl01_1_positions",
      "componentType": 5126,
      "count": 122,
      "min": [
        -21.066869735717773,
        -42.64112091064453,
        -1.1110990047454834
      ],
      "max": [
        -3.680898904800415,
        -23.920202255249023,
        7.130931854248047
      ],
      "type": "VEC3",
      "bufferView": 0,
      "byteOffset": 216
    },
    {
      "name": "ChamferCyl01_1_normals",
      "componentType": 5126,
      "count": 122,
      "min": [
        -2.6260581016540527,
        -2.73301100730896,
        -2.673685073852539
      ],
      "max": [
        2.6260569095611572,
        2.73301100730896,
        2.555872917175293
      ],
      "type": "VEC3",
      "bufferView": 0,
      "byteOffset": 17784
    },
    {
      "name": "ChamferCyl01_1_texcoords",
      "componentType": 5126,
      "count": 122,
      "min": [
        0.019999999552965164,
        0.019999999552965164
      ],
      "max": [
        0.9057869911193848,
        0.9800000190734863
      ],
      "type": "VEC2",
      "bufferView": 1,
      "byteOffset": 144
    },
    {
      "name": "ChamferCyl01_1_0_indices",
      "componentType": 5123,
      "count": 288,
      "min": [
        0
      ],
      "max": [
        121
      ],
      "type": "SCALAR",
      "bufferView": 2,
      "byteOffset": 60
    },
    {
      "name": "ChamferCyl02_1_positions",
      "componentType": 5126,
      "count": 122,
      "min": [
        34.89423370361328,
        -42.64112091064453,
        -1.1110990047454834
      ],
      "max": [
        52.28020477294922,
        -23.920202255249023,
        7.130931854248047
      ],
      "type": "VEC3",
      "bufferView": 0,
      "byteOffset": 1680
    },
    {
      "name": "ChamferCyl02_1_normals",
      "componentType": 5126,
      "count": 122,
      "min": [
        -2.6260581016540527,
        -2.73301100730896,
        -2.673685073852539
      ],
      "max": [
        2.6260569095611572,
        2.73301100730896,
        2.555872917175293
      ],
      "type": "VEC3",
      "bufferView": 0,
      "byteOffset": 19248
    },
    {
      "name": "ChamferCyl02_1_texcoords",
      "componentType": 5126,
      "count": 122,
      "min": [
        0.019999999552965164,
        0.019999999552965164
      ],
      "max": [
        0.9057869911193848,
        0.9800000190734863
      ],
      "type": "VEC2",
      "bufferView": 1,
      "byteOffset": 1120
    },
    {
      "name": "ChamferCyl02_1_0_indices",
      "componentType": 5123,
      "count": 288,
      "min": [
        0
      ],
      "max": [
        121
      ],
      "type": "SCALAR",
      "bufferView": 2,
      "byteOffset": 636
    },
    {
      "name": "ChamferCyl03_1_positions",
      "componentType": 5126,
      "count": 122,
      "min": [
        -21.066869735717773,
        5.731616020202637,
        -1.1111019849777222
      ],
      "max": [
        -3.680898904800415,
        24.452537536621094,
        7.130935192108154
      ],
      "type": "VEC3",
      "bufferView": 0,
      "byteOffset": 3144
    },
    {
      "name": "ChamferCyl03_1_normals",
      "componentType": 5126,
      "count": 122,
      "min": [
        -2.6260581016540527,
        -2.73301100730896,
        -2.673685073852539
      ],
      "max": [
        2.6260569095611572,
        2.73301100730896,
        2.555872917175293
      ],
      "type": "VEC3",
      "bufferView": 0,
      "byteOffset": 20712
    },
    {
      "name": "ChamferCyl03_1_texcoords",
      "componentType": 5126,
      "count": 122,
      "min": [
        0.019999999552965164,
        0.019999999552965164
      ],
      "max": [
        0.9057869911193848,
        0.9800000190734863
      ],
      "type": "VEC2",
      "bufferView": 1,
      "byteOffset": 2096
    },
    {
      "name": "ChamferCyl03_1_0_indices",
      "componentType": 5123,
      "count": 288,
      "min": [
        0
      ],
      "max": [
        121
      ],
      "type": "SCALAR",
      "bufferView": 2,
      "byteOffset": 1212
    },
    {
      "name": "ChamferCyl04_1_positions",
      "componentType": 5126,
      "count": 122,
      "min": [
        34.89423370361328,
        5.731616020202637,
        -1.1111019849777222
      ],
      "max": [
        52.28020477294922,
        24.452537536621094,
        7.130935192108154
      ],
      "type": "VEC3",
      "bufferView": 0,
      "byteOffset": 4608
    },
    {
      "name": "ChamferCyl04_1_normals",
      "componentType": 5126,
      "count": 122,
      "min": [
        -2.6260581016540527,
        -2.73301100730896,
        -2.673685073852539
      ],
      "max": [
        2.6260569095611572,
        2.73301100730896,
        2.555872917175293
      ],
      "type": "VEC3",
      "bufferView": 0,
      "byteOffset": 22176
    },
    {
      "name": "ChamferCyl04_1_texcoords",
      "componentType": 5126,
      "count": 122,
      "min": [
        0.019999999552965164,
        0.019999999552965164
      ],
      "max": [
        0.9057869911193848,
        0.9800000190734863
      ],
      "type": "VEC2",
      "bufferView": 1,
      "byteOffset": 3072
    },
    {
      "name": "ChamferCyl04_1_0_indices",
      "componentType": 5123,
      "count": 288,
      "min": [
        0
      ],
      "max": [
        121
      ],
      "type": "SCALAR",
      "bufferView": 2,
      "byteOffset": 1788
    },
    {
      "name": "backbox01_1_positions",
      "componentType": 5126,
      "count": 18,
      "min": [
        43.624393463134766,
        -2.155942916870117,
        11.837848663330078
      ],
      "max": [
        73.92111206054688,
        10.582513809204102,
        35.66106414794922
      ],
      "type": "VEC3",
      "bufferView": 0,
      "byteOffset": 6072
    },
    {
      "name": "backbox01_1_normals",
      "componentType": 5126,
      "count": 18,
      "min": [
        -0.8588759899139404,
        0,
        -0.525065004825592
      ],
      "max": [
        1.4804420471191406,
        0,
        1.315194010734558
      ],
      "type": "VEC3",
      "bufferView": 0,
      "byteOffset": 23640
    },
    {
      "name": "backbox01_1_texcoords",
      "componentType": 5126,
      "count": 18,
      "min": [
        0.019999999552965164,
        0.019999999552965164
      ],
      "max": [
        0.8674349784851074,
        0.9800000190734863
      ],
      "type": "VEC2",
      "bufferView": 1,
      "byteOffset": 4048
    },
    {
      "name": "backbox01_1_0_indices",
      "componentType": 5123,
      "count": 30,
      "min": [
        0
      ],
      "max": [
        17
      ],
      "type": "SCALAR",
      "bufferView": 2,
      "byteOffset": 2364
    },
    {
      "name": "delor_1_positions",
      "componentType": 5126,
      "count": 940,
      "min": [
        -44.88545227050781,
        -36.51237869262695,
        1.3005650043487549
      ],
      "max": [
        73.67365264892578,
        18.806076049804688,
        43.72675323486328
      ],
      "type": "VEC3",
      "bufferView": 0,
      "byteOffset": 6288
    },
    {
      "name": "delor_1_normals",
      "componentType": 5126,
      "count": 940,
      "min": [
        -1.998365044593811,
        -3.065920114517212,
        -2.959613084793091
      ],
      "max": [
        2.7778050899505615,
        3.065920114517212,
        1.6140480041503906
      ],
      "type": "VEC3",
      "bufferView": 0,
      "byteOffset": 23856
    },
    {
      "name": "delor_1_texcoords",
      "componentType": 5126,
      "count": 940,
      "min": [
        0.019999999552965164,
        0.0163199994713068
      ],
      "max": [
        0.9676740169525146,
        0.9836429953575134
      ],
      "type": "VEC2",
      "bufferView": 1,
      "byteOffset": 4192
    },
    {
      "name": "delor_1_0_indices",
      "componentType": 5123,
      "count": 2220,
      "min": [
        0
      ],
      "max": [
        939
      ],
      "type": "SCALAR",
      "bufferView": 2,
      "byteOffset": 2424
    }
  ],
  "asset": {
    "generator": "obj2gltf",
    "version": "2.0"
  },
  "buffers": [
    {
      "name": "Delorian",
      "byteLength": 324036,
      "uri": "data:application/octet-stream;base64,"
    }
  ],
  "bufferViews": [
    {
      "name": "bufferView_0",
      "buffer": 0,
      "byteLength": 35136,
      "byteOffset": 0,
      "byteStride": 12,
      "target": 34962
    },
    {
      "name": "bufferView_1",
      "buffer": 0,
      "byteLength": 11712,
      "byteOffset": 35136,
      "byteStride": 8,
      "target": 34962
    },
    {
      "name": "bufferView_2",
      "buffer": 0,
      "byteLength": 6864,
      "byteOffset": 46848,
      "target": 34963
    },
    {
      "buffer": 0,
      "byteOffset": 53712,
      "byteLength": 81569
    },
    {
      "buffer": 0,
      "byteOffset": 135281,
      "byteLength": 86563
    },
    {
      "buffer": 0,
      "byteOffset": 221844,
      "byteLength": 102189
    }
  ],
  "images": [
    {
      "name": "backbox",
      "mimeType": "image/jpeg",
      "bufferView": 3
    },
    {
      "name": "wheel",
      "mimeType": "image/jpeg",
      "bufferView": 4
    },
    {
      "name": "body",
      "mimeType": "image/jpeg",
      "bufferView": 5
    }
  ],
  "materials": [
    {
      "name": "2_-_Default",
      "pbrMetallicRoughness": {
        "baseColorTexture": {
          "index": 0
        },
        "baseColorFactor": [
          1,
          1,
          1,
          1
        ],
        "metallicFactor": 0,
        "roughnessFactor": 1
      },
      "emissiveFactor": [
        0,
        0,
        0
      ],
      "alphaMode": "OPAQUE",
      "doubleSided": false
    },
    {
      "name": "3_-_Default",
      "pbrMetallicRoughness": {
        "baseColorTexture": {
          "index": 1
        },
        "baseColorFactor": [
          1,
          1,
          1,
          1
        ],
        "metallicFactor": 0,
        "roughnessFactor": 1
      },
      "emissiveFactor": [
        0,
        0,
        0
      ],
      "alphaMode": "OPAQUE",
      "doubleSided": false
    },
    {
      "name": "1_-_Default",
      "pbrMetallicRoughness": {
        "baseColorTexture": {
          "index": 2
        },
        "baseColorFactor": [
          1,
          1,
          1,
          1
        ],
        "metallicFactor": 0,
        "roughnessFactor": 1
      },
      "emissiveFactor": [
        0,
        0,
        0
      ],
      "alphaMode": "OPAQUE",
      "doubleSided": false
    }
  ],
  "meshes": [
    {
      "name": "backbox_1",
      "primitives": [
        {
          "attributes": {
            "POSITION": 0,
            "NORMAL": 1,
            "TEXCOORD_0": 2
          },
          "indices": 3,
          "material": 0,
          "mode": 4
        }
      ]
    },
    {
      "name": "ChamferCyl01_1",
      "primitives": [
        {
          "attributes": {
            "POSITION": 4,
            "NORMAL": 5,
            "TEXCOORD_0": 6
          },
          "indices": 7,
          "material": 1,
          "mode": 4
        }
      ]
    },
    {
      "name": "ChamferCyl02_1",
      "primitives": [
        {
          "attributes": {
            "POSITION": 8,
            "NORMAL": 9,
            "TEXCOORD_0": 10
          },
          "indices": 11,
          "material": 1,
          "mode": 4
        }
      ]
    },
    {
      "name": "ChamferCyl03_1",
      "primitives": [
        {
          "attributes": {
            "POSITION": 12,
            "NORMAL": 13,
            "TEXCOORD_0": 14
          },
          "indices": 15,
          "material": 1,
          "mode": 4
        }
      ]
    },
    {
      "name": "ChamferCyl04_1",
      "primitives": [
        {
          "attributes": {
            "POSITION": 16,
            "NORMAL": 17,
            "TEXCOORD_0": 18
          },
          "indices": 19,
          "material": 1,
          "mode": 4
        }
      ]
    },
    {
      "name": "backbox01_1",
      "primitives": [
        {
          "attributes": {
            "POSITION": 20,
            "NORMAL": 21,
            "TEXCOORD_0": 22
          },
          "indices": 23,
          "material": 0,
          "mode": 4
        }
      ]
    },
    {
      "name": "delor_1",
      "primitives": [
        {
          "attributes": {
            "POSITION": 24,
            "NORMAL": 25,
            "TEXCOORD_0": 26
          },
          "indices": 27,
          "material": 2,
          "mode": 4
        }
      ]
    }
  ],
  "nodes": [
    {
      "name": "backbox",
      "mesh": 0
    },
    {
      "name": "ChamferCyl01",
      "mesh": 1
    },
    {
      "name": "ChamferCyl02",
      "mesh": 2
    },
    {
      "name": "ChamferCyl03",
      "mesh": 3
    },
    {
      "name": "ChamferCyl04",
      "mesh": 4
    },
    {
      "name": "backbox01",
      "mesh": 5
    },
    {
      "name": "delor",
      "mesh": 6
    }
  ],
  "samplers": [
    {
      "magFilter": 9729,
      "minFilter": 9986,
      "wrapS": 10497,
      "wrapT": 10497
    }
  ],
  "scene": 0,
  "scenes": [
    {
      "nodes": [
        0,
        1,
        2,
        3,
        4,
        5,
        6
      ]
    }
  ],
  "textures": [
    {
      "name": "backbox",
      "sampler": 0,
      "source": 0
    },
    {
      "name": "wheel",
      "sampler": 0,
      "source": 1
    },
    {
      "name": "body",
      "sampler": 0,
      "source": 2
    }
  ]
}
